<svg width="158" height="18" viewBox="0 0 158 18" fill="none" xmlns="http://www.w3.org/2000/svg">
<path d="M9.58 14L6.88 10.1H6.72H3.9V14H0.66V-9.53674e-07H6.72C7.96 -9.53674e-07 9.03333 0.206666 9.94 0.619999C10.86 1.03333 11.5667 1.62 12.06 2.38C12.5533 3.14 12.8 4.04 12.8 5.08C12.8 6.12 12.5467 7.02 12.04 7.78C11.5467 8.52667 10.84 9.1 9.92 9.5L13.06 14H9.58ZM9.52 5.08C9.52 4.29333 9.26667 3.69333 8.76 3.28C8.25333 2.85333 7.51333 2.64 6.54 2.64H3.9V7.52H6.54C7.51333 7.52 8.25333 7.30667 8.76 6.88C9.26667 6.45333 9.52 5.85333 9.52 5.08ZM25.687 8.66C25.687 8.7 25.667 8.98 25.627 9.5H17.487C17.6337 10.1667 17.9804 10.6933 18.527 11.08C19.0737 11.4667 19.7537 11.66 20.567 11.66C21.127 11.66 21.6204 11.58 22.047 11.42C22.487 11.2467 22.8937 10.98 23.267 10.62L24.927 12.42C23.9137 13.58 22.4337 14.16 20.487 14.16C19.2737 14.16 18.2004 13.9267 17.267 13.46C16.3337 12.98 15.6137 12.32 15.107 11.48C14.6004 10.64 14.347 9.68667 14.347 8.62C14.347 7.56667 14.5937 6.62 15.087 5.78C15.5937 4.92667 16.2804 4.26667 17.147 3.8C18.027 3.32 19.007 3.08 20.087 3.08C21.1404 3.08 22.0937 3.30667 22.947 3.76C23.8004 4.21333 24.467 4.86667 24.947 5.72C25.4404 6.56 25.687 7.54 25.687 8.66ZM20.107 5.44C19.4004 5.44 18.807 5.64 18.327 6.04C17.847 6.44 17.5537 6.98667 17.447 7.68H22.747C22.6404 7 22.347 6.46 21.867 6.06C21.387 5.64667 20.8004 5.44 20.107 5.44ZM31.3842 14.16C30.4909 14.16 29.6176 14.0533 28.7642 13.84C27.9109 13.6133 27.2309 13.3333 26.7242 13L27.7642 10.76C28.2442 11.0667 28.8242 11.32 29.5042 11.52C30.1842 11.7067 30.8509 11.8 31.5042 11.8C32.8242 11.8 33.4842 11.4733 33.4842 10.82C33.4842 10.5133 33.3042 10.2933 32.9442 10.16C32.5842 10.0267 32.0309 9.91333 31.2842 9.82C30.4042 9.68667 29.6776 9.53333 29.1042 9.36C28.5309 9.18667 28.0309 8.88 27.6042 8.44C27.1909 8 26.9842 7.37333 26.9842 6.56C26.9842 5.88 27.1776 5.28 27.5642 4.76C27.9642 4.22667 28.5376 3.81333 29.2842 3.52C30.0442 3.22667 30.9376 3.08 31.9642 3.08C32.7242 3.08 33.4776 3.16667 34.2242 3.34C34.9842 3.5 35.6109 3.72667 36.1042 4.02L35.0642 6.24C34.1176 5.70667 33.0842 5.44 31.9642 5.44C31.2976 5.44 30.7976 5.53333 30.4642 5.72C30.1309 5.90667 29.9642 6.14667 29.9642 6.44C29.9642 6.77333 30.1442 7.00667 30.5042 7.14C30.8642 7.27333 31.4376 7.4 32.2242 7.52C33.1042 7.66667 33.8242 7.82667 34.3842 8C34.9442 8.16 35.4309 8.46 35.8442 8.9C36.2576 9.34 36.4642 9.95333 36.4642 10.74C36.4642 11.4067 36.2642 12 35.8642 12.52C35.4642 13.04 34.8776 13.4467 34.1042 13.74C33.3442 14.02 32.4376 14.16 31.3842 14.16ZM45.3292 13.48C45.0226 13.7067 44.6426 13.88 44.1892 14C43.7492 14.1067 43.2826 14.16 42.7892 14.16C41.5092 14.16 40.5159 13.8333 39.8092 13.18C39.1159 12.5267 38.7692 11.5667 38.7692 10.3V5.88H37.1092V3.48H38.7692V0.86H41.8892V3.48H44.5692V5.88H41.8892V10.26C41.8892 10.7133 42.0026 11.0667 42.2292 11.32C42.4692 11.56 42.8026 11.68 43.2292 11.68C43.7226 11.68 44.1426 11.5467 44.4892 11.28L45.3292 13.48ZM51.4206 3.08C53.0873 3.08 54.3673 3.48 55.2606 4.28C56.154 5.06667 56.6006 6.26 56.6006 7.86V14H53.6806V12.66C53.094 13.66 52.0006 14.16 50.4006 14.16C49.574 14.16 48.854 14.02 48.2406 13.74C47.6406 13.46 47.1806 13.0733 46.8606 12.58C46.5406 12.0867 46.3806 11.5267 46.3806 10.9C46.3806 9.9 46.754 9.11333 47.5006 8.54C48.2606 7.96667 49.4273 7.68 51.0006 7.68H53.4806C53.4806 7 53.274 6.48 52.8606 6.12C52.4473 5.74667 51.8273 5.56 51.0006 5.56C50.4273 5.56 49.8606 5.65333 49.3006 5.84C48.754 6.01333 48.2873 6.25333 47.9006 6.56L46.7806 4.38C47.3673 3.96667 48.0673 3.64667 48.8806 3.42C49.7073 3.19333 50.554 3.08 51.4206 3.08ZM51.1806 12.06C51.714 12.06 52.1873 11.94 52.6006 11.7C53.014 11.4467 53.3073 11.08 53.4806 10.6V9.5H51.3406C50.0606 9.5 49.4206 9.92 49.4206 10.76C49.4206 11.16 49.574 11.48 49.8806 11.72C50.2006 11.9467 50.634 12.06 51.1806 12.06ZM70.2644 3.24V14H67.3044V12.72C66.891 13.1867 66.3977 13.5467 65.8244 13.8C65.251 14.04 64.631 14.16 63.9644 14.16C62.551 14.16 61.431 13.7533 60.6044 12.94C59.7777 12.1267 59.3644 10.92 59.3644 9.32V3.24H62.4844V8.86C62.4844 10.5933 63.211 11.46 64.6644 11.46C65.411 11.46 66.011 11.22 66.4644 10.74C66.9177 10.2467 67.1444 9.52 67.1444 8.56V3.24H70.2644ZM76.1348 4.66C76.5082 4.14 77.0082 3.74667 77.6348 3.48C78.2748 3.21333 79.0082 3.08 79.8348 3.08V5.96C79.4882 5.93333 79.2548 5.92 79.1348 5.92C78.2415 5.92 77.5415 6.17333 77.0348 6.68C76.5282 7.17333 76.2748 7.92 76.2748 8.92V14H73.1548V3.24H76.1348V4.66ZM85.9714 3.08C87.6381 3.08 88.9181 3.48 89.8114 4.28C90.7047 5.06667 91.1514 6.26 91.1514 7.86V14H88.2314V12.66C87.6447 13.66 86.5514 14.16 84.9514 14.16C84.1247 14.16 83.4047 14.02 82.7914 13.74C82.1914 13.46 81.7314 13.0733 81.4114 12.58C81.0914 12.0867 80.9314 11.5267 80.9314 10.9C80.9314 9.9 81.3047 9.11333 82.0514 8.54C82.8114 7.96667 83.9781 7.68 85.5514 7.68H88.0314C88.0314 7 87.8247 6.48 87.4114 6.12C86.9981 5.74667 86.3781 5.56 85.5514 5.56C84.9781 5.56 84.4114 5.65333 83.8514 5.84C83.3047 6.01333 82.8381 6.25333 82.4514 6.56L81.3314 4.38C81.9181 3.96667 82.6181 3.64667 83.4314 3.42C84.2581 3.19333 85.1047 3.08 85.9714 3.08ZM85.7314 12.06C86.2647 12.06 86.7381 11.94 87.1514 11.7C87.5647 11.4467 87.8581 11.08 88.0314 10.6V9.5H85.8914C84.6114 9.5 83.9714 9.92 83.9714 10.76C83.9714 11.16 84.1247 11.48 84.4314 11.72C84.7514 11.9467 85.1847 12.06 85.7314 12.06ZM100.515 3.08C101.848 3.08 102.922 3.48 103.735 4.28C104.562 5.08 104.975 6.26667 104.975 7.84V14H101.855V8.32C101.855 7.46667 101.668 6.83333 101.295 6.42C100.922 5.99333 100.382 5.78 99.6752 5.78C98.8885 5.78 98.2618 6.02667 97.7952 6.52C97.3285 7 97.0952 7.72 97.0952 8.68V14H93.9752V3.24H96.9552V4.5C97.3685 4.04667 97.8818 3.7 98.4952 3.46C99.1085 3.20667 99.7818 3.08 100.515 3.08ZM114.743 13.48C114.437 13.7067 114.057 13.88 113.603 14C113.163 14.1067 112.697 14.16 112.203 14.16C110.923 14.16 109.93 13.8333 109.223 13.18C108.53 12.5267 108.183 11.5667 108.183 10.3V5.88H106.523V3.48H108.183V0.86H111.303V3.48H113.983V5.88H111.303V10.26C111.303 10.7133 111.417 11.0667 111.643 11.32C111.883 11.56 112.217 11.68 112.643 11.68C113.137 11.68 113.557 11.5467 113.903 11.28L114.743 13.48Z" fill="#0F123F"/>
<path d="M125.935 11H119.435L118.195 14H114.875L121.115 -9.53674e-07H124.315L130.575 14H127.175L125.935 11ZM124.915 8.54L122.695 3.18L120.475 8.54H124.915ZM138.167 3.08C139.167 3.08 140.074 3.31333 140.887 3.78C141.714 4.23333 142.361 4.88 142.827 5.72C143.294 6.54667 143.527 7.51333 143.527 8.62C143.527 9.72667 143.294 10.7 142.827 11.54C142.361 12.3667 141.714 13.0133 140.887 13.48C140.074 13.9333 139.167 14.16 138.167 14.16C136.794 14.16 135.714 13.7267 134.927 12.86V17.88H131.807V3.24H134.787V4.48C135.561 3.54667 136.687 3.08 138.167 3.08ZM137.627 11.6C138.427 11.6 139.081 11.3333 139.587 10.8C140.107 10.2533 140.367 9.52667 140.367 8.62C140.367 7.71333 140.107 6.99333 139.587 6.46C139.081 5.91333 138.427 5.64 137.627 5.64C136.827 5.64 136.167 5.91333 135.647 6.46C135.141 6.99333 134.887 7.71333 134.887 8.62C134.887 9.52667 135.141 10.2533 135.647 10.8C136.167 11.3333 136.827 11.6 137.627 11.6ZM151.976 3.08C152.976 3.08 153.882 3.31333 154.696 3.78C155.522 4.23333 156.169 4.88 156.636 5.72C157.102 6.54667 157.336 7.51333 157.336 8.62C157.336 9.72667 157.102 10.7 156.636 11.54C156.169 12.3667 155.522 13.0133 154.696 13.48C153.882 13.9333 152.976 14.16 151.976 14.16C150.602 14.16 149.522 13.7267 148.736 12.86V17.88H145.616V3.24H148.596V4.48C149.369 3.54667 150.496 3.08 151.976 3.08ZM151.436 11.6C152.236 11.6 152.889 11.3333 153.396 10.8C153.916 10.2533 154.176 9.52667 154.176 8.62C154.176 7.71333 153.916 6.99333 153.396 6.46C152.889 5.91333 152.236 5.64 151.436 5.64C150.636 5.64 149.976 5.91333 149.456 6.46C148.949 6.99333 148.696 7.71333 148.696 8.62C148.696 9.52667 148.949 10.2533 149.456 10.8C149.976 11.3333 150.636 11.6 151.436 11.6Z" fill="#A7A7A7"/>
</svg>
