<svg width="218" height="41" viewBox="0 0 218 41" fill="none" xmlns="http://www.w3.org/2000/svg">
<path d="M69.58 28L66.88 24.1H66.72H63.9V28H60.66V14H66.72C67.96 14 69.0333 14.2067 69.94 14.62C70.86 15.0333 71.5667 15.62 72.06 16.38C72.5533 17.14 72.8 18.04 72.8 19.08C72.8 20.12 72.5467 21.02 72.04 21.78C71.5467 22.5267 70.84 23.1 69.92 23.5L73.06 28H69.58ZM69.52 19.08C69.52 18.2933 69.2667 17.6933 68.76 17.28C68.2533 16.8533 67.5133 16.64 66.54 16.64H63.9V21.52H66.54C67.5133 21.52 68.2533 21.3067 68.76 20.88C69.2667 20.4533 69.52 19.8533 69.52 19.08ZM85.687 22.66C85.687 22.7 85.667 22.98 85.627 23.5H77.487C77.6337 24.1667 77.9804 24.6933 78.527 25.08C79.0737 25.4667 79.7537 25.66 80.567 25.66C81.127 25.66 81.6204 25.58 82.047 25.42C82.487 25.2467 82.8937 24.98 83.267 24.62L84.927 26.42C83.9137 27.58 82.4337 28.16 80.487 28.16C79.2737 28.16 78.2004 27.9267 77.267 27.46C76.3337 26.98 75.6137 26.32 75.107 25.48C74.6004 24.64 74.347 23.6867 74.347 22.62C74.347 21.5667 74.5937 20.62 75.087 19.78C75.5937 18.9267 76.2804 18.2667 77.147 17.8C78.027 17.32 79.007 17.08 80.087 17.08C81.1404 17.08 82.0937 17.3067 82.947 17.76C83.8004 18.2133 84.467 18.8667 84.947 19.72C85.4404 20.56 85.687 21.54 85.687 22.66ZM80.107 19.44C79.4004 19.44 78.807 19.64 78.327 20.04C77.847 20.44 77.5537 20.9867 77.447 21.68H82.747C82.6404 21 82.347 20.46 81.867 20.06C81.387 19.6467 80.8004 19.44 80.107 19.44ZM91.3842 28.16C90.4909 28.16 89.6176 28.0533 88.7642 27.84C87.9109 27.6133 87.2309 27.3333 86.7242 27L87.7642 24.76C88.2442 25.0667 88.8242 25.32 89.5042 25.52C90.1842 25.7067 90.8509 25.8 91.5042 25.8C92.8242 25.8 93.4842 25.4733 93.4842 24.82C93.4842 24.5133 93.3042 24.2933 92.9442 24.16C92.5842 24.0267 92.0309 23.9133 91.2842 23.82C90.4042 23.6867 89.6776 23.5333 89.1042 23.36C88.5309 23.1867 88.0309 22.88 87.6042 22.44C87.1909 22 86.9842 21.3733 86.9842 20.56C86.9842 19.88 87.1776 19.28 87.5642 18.76C87.9642 18.2267 88.5376 17.8133 89.2842 17.52C90.0442 17.2267 90.9376 17.08 91.9642 17.08C92.7242 17.08 93.4776 17.1667 94.2242 17.34C94.9842 17.5 95.6109 17.7267 96.1042 18.02L95.0642 20.24C94.1176 19.7067 93.0842 19.44 91.9642 19.44C91.2976 19.44 90.7976 19.5333 90.4642 19.72C90.1309 19.9067 89.9642 20.1467 89.9642 20.44C89.9642 20.7733 90.1442 21.0067 90.5042 21.14C90.8642 21.2733 91.4376 21.4 92.2242 21.52C93.1042 21.6667 93.8242 21.8267 94.3842 22C94.9442 22.16 95.4309 22.46 95.8442 22.9C96.2576 23.34 96.4642 23.9533 96.4642 24.74C96.4642 25.4067 96.2642 26 95.8642 26.52C95.4642 27.04 94.8776 27.4467 94.1042 27.74C93.3442 28.02 92.4376 28.16 91.3842 28.16ZM105.329 27.48C105.023 27.7067 104.643 27.88 104.189 28C103.749 28.1067 103.283 28.16 102.789 28.16C101.509 28.16 100.516 27.8333 99.8092 27.18C99.1159 26.5267 98.7692 25.5667 98.7692 24.3V19.88H97.1092V17.48H98.7692V14.86H101.889V17.48H104.569V19.88H101.889V24.26C101.889 24.7133 102.003 25.0667 102.229 25.32C102.469 25.56 102.803 25.68 103.229 25.68C103.723 25.68 104.143 25.5467 104.489 25.28L105.329 27.48ZM111.421 17.08C113.087 17.08 114.367 17.48 115.261 18.28C116.154 19.0667 116.601 20.26 116.601 21.86V28H113.681V26.66C113.094 27.66 112.001 28.16 110.401 28.16C109.574 28.16 108.854 28.02 108.241 27.74C107.641 27.46 107.181 27.0733 106.861 26.58C106.541 26.0867 106.381 25.5267 106.381 24.9C106.381 23.9 106.754 23.1133 107.501 22.54C108.261 21.9667 109.427 21.68 111.001 21.68H113.481C113.481 21 113.274 20.48 112.861 20.12C112.447 19.7467 111.827 19.56 111.001 19.56C110.427 19.56 109.861 19.6533 109.301 19.84C108.754 20.0133 108.287 20.2533 107.901 20.56L106.781 18.38C107.367 17.9667 108.067 17.6467 108.881 17.42C109.707 17.1933 110.554 17.08 111.421 17.08ZM111.181 26.06C111.714 26.06 112.187 25.94 112.601 25.7C113.014 25.4467 113.307 25.08 113.481 24.6V23.5H111.341C110.061 23.5 109.421 23.92 109.421 24.76C109.421 25.16 109.574 25.48 109.881 25.72C110.201 25.9467 110.634 26.06 111.181 26.06ZM130.264 17.24V28H127.304V26.72C126.891 27.1867 126.398 27.5467 125.824 27.8C125.251 28.04 124.631 28.16 123.964 28.16C122.551 28.16 121.431 27.7533 120.604 26.94C119.778 26.1267 119.364 24.92 119.364 23.32V17.24H122.484V22.86C122.484 24.5933 123.211 25.46 124.664 25.46C125.411 25.46 126.011 25.22 126.464 24.74C126.918 24.2467 127.144 23.52 127.144 22.56V17.24H130.264ZM136.135 18.66C136.508 18.14 137.008 17.7467 137.635 17.48C138.275 17.2133 139.008 17.08 139.835 17.08V19.96C139.488 19.9333 139.255 19.92 139.135 19.92C138.242 19.92 137.542 20.1733 137.035 20.68C136.528 21.1733 136.275 21.92 136.275 22.92V28H133.155V17.24H136.135V18.66ZM145.971 17.08C147.638 17.08 148.918 17.48 149.811 18.28C150.705 19.0667 151.151 20.26 151.151 21.86V28H148.231V26.66C147.645 27.66 146.551 28.16 144.951 28.16C144.125 28.16 143.405 28.02 142.791 27.74C142.191 27.46 141.731 27.0733 141.411 26.58C141.091 26.0867 140.931 25.5267 140.931 24.9C140.931 23.9 141.305 23.1133 142.051 22.54C142.811 21.9667 143.978 21.68 145.551 21.68H148.031C148.031 21 147.825 20.48 147.411 20.12C146.998 19.7467 146.378 19.56 145.551 19.56C144.978 19.56 144.411 19.6533 143.851 19.84C143.305 20.0133 142.838 20.2533 142.451 20.56L141.331 18.38C141.918 17.9667 142.618 17.6467 143.431 17.42C144.258 17.1933 145.105 17.08 145.971 17.08ZM145.731 26.06C146.265 26.06 146.738 25.94 147.151 25.7C147.565 25.4467 147.858 25.08 148.031 24.6V23.5H145.891C144.611 23.5 143.971 23.92 143.971 24.76C143.971 25.16 144.125 25.48 144.431 25.72C144.751 25.9467 145.185 26.06 145.731 26.06ZM160.515 17.08C161.848 17.08 162.922 17.48 163.735 18.28C164.562 19.08 164.975 20.2667 164.975 21.84V28H161.855V22.32C161.855 21.4667 161.668 20.8333 161.295 20.42C160.922 19.9933 160.382 19.78 159.675 19.78C158.888 19.78 158.262 20.0267 157.795 20.52C157.328 21 157.095 21.72 157.095 22.68V28H153.975V17.24H156.955V18.5C157.368 18.0467 157.882 17.7 158.495 17.46C159.108 17.2067 159.782 17.08 160.515 17.08ZM174.743 27.48C174.437 27.7067 174.057 27.88 173.603 28C173.163 28.1067 172.697 28.16 172.203 28.16C170.923 28.16 169.93 27.8333 169.223 27.18C168.53 26.5267 168.183 25.5667 168.183 24.3V19.88H166.523V17.48H168.183V14.86H171.303V17.48H173.983V19.88H171.303V24.26C171.303 24.7133 171.417 25.0667 171.643 25.32C171.883 25.56 172.217 25.68 172.643 25.68C173.137 25.68 173.557 25.5467 173.903 25.28L174.743 27.48Z" fill="white"/>
<path d="M185.935 25H179.435L178.195 28H174.875L181.115 14H184.315L190.575 28H187.175L185.935 25ZM184.915 22.54L182.695 17.18L180.475 22.54H184.915ZM198.167 17.08C199.167 17.08 200.074 17.3133 200.887 17.78C201.714 18.2333 202.361 18.88 202.827 19.72C203.294 20.5467 203.527 21.5133 203.527 22.62C203.527 23.7267 203.294 24.7 202.827 25.54C202.361 26.3667 201.714 27.0133 200.887 27.48C200.074 27.9333 199.167 28.16 198.167 28.16C196.794 28.16 195.714 27.7267 194.927 26.86V31.88H191.807V17.24H194.787V18.48C195.561 17.5467 196.687 17.08 198.167 17.08ZM197.627 25.6C198.427 25.6 199.081 25.3333 199.587 24.8C200.107 24.2533 200.367 23.5267 200.367 22.62C200.367 21.7133 200.107 20.9933 199.587 20.46C199.081 19.9133 198.427 19.64 197.627 19.64C196.827 19.64 196.167 19.9133 195.647 20.46C195.141 20.9933 194.887 21.7133 194.887 22.62C194.887 23.5267 195.141 24.2533 195.647 24.8C196.167 25.3333 196.827 25.6 197.627 25.6ZM211.976 17.08C212.976 17.08 213.882 17.3133 214.696 17.78C215.522 18.2333 216.169 18.88 216.636 19.72C217.102 20.5467 217.336 21.5133 217.336 22.62C217.336 23.7267 217.102 24.7 216.636 25.54C216.169 26.3667 215.522 27.0133 214.696 27.48C213.882 27.9333 212.976 28.16 211.976 28.16C210.602 28.16 209.522 27.7267 208.736 26.86V31.88H205.616V17.24H208.596V18.48C209.369 17.5467 210.496 17.08 211.976 17.08ZM211.436 25.6C212.236 25.6 212.889 25.3333 213.396 24.8C213.916 24.2533 214.176 23.5267 214.176 22.62C214.176 21.7133 213.916 20.9933 213.396 20.46C212.889 19.9133 212.236 19.64 211.436 19.64C210.636 19.64 209.976 19.9133 209.456 20.46C208.949 20.9933 208.696 21.7133 208.696 22.62C208.696 23.5267 208.949 24.2533 209.456 24.8C209.976 25.3333 210.636 25.6 211.436 25.6Z" fill="#A7A7A7"/>
<path d="M36.672 28.3H24.322L21.966 34H15.658L27.514 7.4H33.594L45.488 34H39.028L36.672 28.3ZM34.734 23.626L30.516 13.442L26.298 23.626H34.734Z" fill="#A7A7A7"/>
<path d="M20.102 34L14.972 26.59H14.668H9.31V34H3.154V7.4H14.668C17.024 7.4 19.0633 7.79267 20.786 8.578C22.534 9.36333 23.8767 10.478 24.814 11.922C25.7513 13.366 26.22 15.076 26.22 17.052C26.22 19.028 25.7387 20.738 24.776 22.182C23.8387 23.6007 22.496 24.69 20.748 25.45L26.714 34H20.102ZM19.988 17.052C19.988 15.5573 19.5067 14.4173 18.544 13.632C17.5813 12.8213 16.1753 12.416 14.326 12.416H9.31V21.688H14.326C16.1753 21.688 17.5813 21.2827 18.544 20.472C19.5067 19.6613 19.988 18.5213 19.988 17.052Z" fill="white"/>
</svg>
