<svg width="46" height="41" viewBox="0 0 46 41" fill="none" xmlns="http://www.w3.org/2000/svg">
<path d="M36.672 28.3H24.322L21.966 34H15.658L27.514 7.4H33.594L45.488 34H39.028L36.672 28.3ZM34.734 23.626L30.516 13.442L26.298 23.626H34.734Z" fill="#A7A7A7"/>
<path d="M20.102 34L14.972 26.59H14.668H9.31V34H3.154V7.4H14.668C17.024 7.4 19.0633 7.79267 20.786 8.578C22.534 9.36333 23.8767 10.478 24.814 11.922C25.7513 13.366 26.22 15.076 26.22 17.052C26.22 19.028 25.7387 20.738 24.776 22.182C23.8387 23.6007 22.496 24.69 20.748 25.45L26.714 34H20.102ZM19.988 17.052C19.988 15.5573 19.5067 14.4173 18.544 13.632C17.5813 12.8213 16.1753 12.416 14.326 12.416H9.31V21.688H14.326C16.1753 21.688 17.5813 21.2827 18.544 20.472C19.5067 19.6613 19.988 18.5213 19.988 17.052Z" fill="white"/>
</svg>
